<svg width="211" height="45" viewBox="0 0 211 45" fill="none" xmlns="http://www.w3.org/2000/svg">
<path id="CG BLENDS" d="M22.8955 1.10645L21.665 10.3789C21.2402 10.2617 20.8154 10.1812 20.3906 10.1372C19.9658 10.0933 19.541 10.0713 19.1162 10.0713C18.0322 10.0713 16.9995 10.2178 16.0181 10.5107C15.0366 10.7891 14.165 11.2212 13.4033 11.8071C12.6562 12.3931 12.0557 13.1255 11.6016 14.0044C11.1621 14.8833 10.9424 15.916 10.9424 17.1025C10.9424 17.8643 11.0596 18.5234 11.2939 19.0801C11.543 19.6367 11.8872 20.0981 12.3267 20.4644C12.7661 20.8306 13.2861 21.1016 13.8867 21.2773C14.4873 21.4531 15.1465 21.541 15.8643 21.541C16.4062 21.541 16.9702 21.4824 17.5562 21.3652C18.1421 21.248 18.7207 21.0942 19.292 20.9038C19.8633 20.7134 20.4199 20.4937 20.9619 20.2446C21.5039 19.9956 22.002 19.7393 22.4561 19.4756L21.5771 29.8027C21.0059 30.0957 20.3833 30.3594 19.7095 30.5938C19.0503 30.8135 18.3691 31.0112 17.666 31.187C16.9629 31.3481 16.2598 31.4727 15.5566 31.5605C14.8535 31.6484 14.1797 31.6924 13.5352 31.6924C11.6748 31.6924 9.93896 31.3481 8.32764 30.6597C6.71631 29.9712 5.31738 29.0264 4.13086 27.8252C2.94434 26.624 2.00684 25.2104 1.31836 23.5845C0.644531 21.9438 0.307617 20.1787 0.307617 18.2891C0.307617 15.7842 0.666504 13.4258 1.38428 11.2139C2.10205 8.9873 3.15674 7.03906 4.54834 5.36914C5.93994 3.69922 7.66113 2.38086 9.71191 1.41406C11.7773 0.447266 14.1504 -0.0361328 16.8311 -0.0361328C17.8418 -0.0361328 18.8745 0.0444336 19.9292 0.205566C20.9985 0.366699 21.9873 0.666992 22.8955 1.10645ZM50.8008 27.5176C50.1123 28.3818 49.2627 29.1362 48.252 29.7808C47.2412 30.4253 46.1572 30.96 45 31.3848C43.8428 31.8096 42.6562 32.1245 41.4404 32.3296C40.2246 32.5493 39.0674 32.6592 37.9688 32.6592C35.8447 32.6592 33.8892 32.2783 32.1021 31.5166C30.3149 30.7549 28.7695 29.7075 27.4658 28.3745C26.1768 27.0269 25.166 25.4448 24.4336 23.6284C23.7012 21.812 23.335 19.8564 23.335 17.7617C23.335 16.165 23.5181 14.605 23.8843 13.0815C24.2505 11.5435 24.7705 10.1006 25.4443 8.75293C26.1328 7.39062 26.9678 6.14551 27.9492 5.01758C28.9307 3.875 30.0439 2.89355 31.2891 2.07324C32.5342 1.25293 33.8965 0.615723 35.376 0.161621C36.8555 -0.29248 38.4375 -0.519531 40.1221 -0.519531C40.752 -0.519531 41.4258 -0.490234 42.1436 -0.431641C42.8613 -0.387695 43.5718 -0.299805 44.2749 -0.167969C44.9927 -0.0507813 45.6885 0.117676 46.3623 0.337402C47.0361 0.557129 47.6514 0.828125 48.208 1.15039L47.5928 9.54395C46.7725 9.23633 45.9229 9.03125 45.0439 8.92871C44.1797 8.81152 43.3301 8.75293 42.4951 8.75293C41.3232 8.75293 40.2246 8.93604 39.1992 9.30225C38.1885 9.65381 37.3022 10.1665 36.5405 10.8403C35.7935 11.5142 35.2002 12.3345 34.7607 13.3013C34.3213 14.2681 34.1016 15.3594 34.1016 16.5752C34.1016 17.3369 34.2041 18.0767 34.4092 18.7944C34.6143 19.4976 34.9219 20.1274 35.332 20.6841C35.7568 21.2261 36.2769 21.6655 36.8921 22.0024C37.522 22.3394 38.2471 22.5078 39.0674 22.5078C39.624 22.5078 40.1953 22.4346 40.7812 22.2881C41.3818 22.1416 41.8945 21.8926 42.3193 21.541L42.4072 19.8271L37.1338 19.7393L37.3975 13.1475C39.5801 13.0742 41.7627 13.0156 43.9453 12.9717C46.1279 12.9131 48.3252 12.8398 50.5371 12.752L50.8008 27.5176ZM86.8579 24.1777C86.8579 25.3936 86.6309 26.4409 86.1768 27.3198C85.7373 28.1987 85.144 28.9458 84.397 29.561C83.6499 30.1763 82.7856 30.6816 81.8042 31.0771C80.8374 31.458 79.8267 31.7583 78.772 31.978C77.7173 32.1978 76.6553 32.3442 75.5859 32.4175C74.5312 32.4907 73.5425 32.5273 72.6196 32.5273C71.7114 32.5273 70.7666 32.4907 69.7852 32.4175C68.8184 32.3589 67.8516 32.249 66.8848 32.0879C65.918 31.9268 64.9658 31.7144 64.0283 31.4507C63.0908 31.1724 62.2046 30.8281 61.3696 30.418L61.3257 2.11719C62.146 1.78027 63.0176 1.47998 63.9404 1.21631C64.8633 0.937988 65.8008 0.710938 66.7529 0.535156C67.7197 0.344727 68.6792 0.205566 69.6313 0.117676C70.5835 0.0151367 71.5063 -0.0361328 72.3999 -0.0361328C73.4399 -0.0361328 74.4873 0.0297852 75.542 0.161621C76.6113 0.293457 77.6367 0.513184 78.6182 0.820801C79.5996 1.12842 80.5151 1.53125 81.3647 2.0293C82.2144 2.5127 82.9541 3.11328 83.584 3.83105C84.2285 4.54883 84.7266 5.38379 85.0781 6.33594C85.4443 7.28809 85.6274 8.38672 85.6274 9.63184C85.6274 10.4521 85.5103 11.2212 85.2759 11.939C85.0415 12.6567 84.7046 13.3013 84.2651 13.8726C83.8257 14.4438 83.291 14.9346 82.6611 15.3447C82.0312 15.7402 81.3208 16.0332 80.5298 16.2236C81.4819 16.4727 82.3462 16.8389 83.1226 17.3223C83.9136 17.8057 84.5801 18.3916 85.1221 19.0801C85.6787 19.7686 86.1035 20.5449 86.3965 21.4092C86.7041 22.2734 86.8579 23.1963 86.8579 24.1777ZM75.6958 11.6533C75.6958 11.2285 75.6079 10.8696 75.4321 10.5767C75.2563 10.269 75.0366 10.02 74.7729 9.82959C74.5239 9.63916 74.2456 9.5 73.938 9.41211C73.645 9.32422 73.3813 9.28027 73.147 9.28027C72.854 9.28027 72.5684 9.32422 72.29 9.41211C72.0117 9.5 71.7407 9.60254 71.4771 9.71973L71.3452 14.5977C71.6821 14.5977 72.0996 14.5684 72.5977 14.5098C73.0957 14.4512 73.5718 14.3267 74.0259 14.1362C74.4946 13.9312 74.8901 13.6382 75.2124 13.2573C75.5347 12.8618 75.6958 12.3271 75.6958 11.6533ZM72.5757 18.8164C72.1509 18.8164 71.7407 18.8604 71.3452 18.9482L71.2573 23.958C71.4771 24.002 71.6895 24.0459 71.8945 24.0898C72.1143 24.1191 72.3267 24.1338 72.5317 24.1338C72.8394 24.1338 73.1763 24.1045 73.5425 24.0459C73.9087 23.9727 74.2529 23.8408 74.5752 23.6504C74.8975 23.4453 75.1611 23.1743 75.3662 22.8374C75.5859 22.5005 75.6958 22.0537 75.6958 21.4971C75.6958 20.9404 75.5859 20.4863 75.3662 20.1348C75.1611 19.7832 74.9048 19.5122 74.5972 19.3218C74.2896 19.1167 73.9526 18.9849 73.5864 18.9263C73.2202 18.853 72.8833 18.8164 72.5757 18.8164ZM107.358 19.4756L106.436 29.2314L87.9346 30.6816C88.0225 25.5693 88.1177 20.4863 88.2202 15.4326C88.3374 10.3789 88.4766 5.2959 88.6377 0.183594H100.063C99.7266 3.3916 99.4043 6.59961 99.0967 9.80762C98.7891 13.001 98.5693 16.2236 98.4375 19.4756C99.126 19.5049 99.8071 19.5195 100.481 19.5195C101.155 19.5195 101.836 19.5195 102.524 19.5195C103.345 19.5195 104.15 19.5122 104.941 19.4976C105.732 19.4829 106.538 19.4756 107.358 19.4756ZM129.199 0.31543C129.111 1.69238 129.031 3.05469 128.958 4.40234C128.884 5.75 128.789 7.1123 128.672 8.48926L119.355 8.97266L119.136 11.7412H125.684L125.2 18.5527L118.608 18.7725L118.389 21.9805H123.838H127.705C127.617 23.5918 127.522 25.1958 127.419 26.7925C127.332 28.3745 127.251 29.9639 127.178 31.5605L108.237 32L108.94 0.31543H129.199ZM159.851 0.491211L158.269 30.2861L146.755 31.3408L140.603 15.3887L139.636 31.6484H129.749L130.54 0.491211L141.526 -0.0361328L149.128 15.7842L149.48 0.842773L159.851 0.491211ZM186.548 14.5537C186.548 16.6045 186.284 18.4575 185.757 20.1128C185.229 21.7534 184.49 23.2183 183.538 24.5073C182.6 25.7817 181.479 26.8804 180.176 27.8032C178.872 28.7261 177.444 29.4878 175.891 30.0884C174.338 30.6743 172.683 31.1138 170.925 31.4067C169.182 31.6851 167.388 31.8242 165.542 31.8242C164.854 31.8242 164.18 31.8096 163.521 31.7803C162.861 31.7363 162.188 31.6777 161.499 31.6045L162.114 2.11719C163.726 1.60449 165.381 1.24561 167.08 1.04053C168.794 0.820801 170.493 0.710938 172.178 0.710938C174.272 0.710938 176.199 1.02588 177.957 1.65576C179.714 2.28564 181.23 3.19385 182.505 4.38037C183.779 5.56689 184.768 7.01709 185.471 8.73096C186.189 10.4448 186.548 12.3857 186.548 14.5537ZM177.539 15.96C177.554 15.1689 177.466 14.4072 177.275 13.6748C177.1 12.9424 176.799 12.2979 176.375 11.7412C175.964 11.1699 175.437 10.7158 174.792 10.3789C174.148 10.0273 173.379 9.83691 172.485 9.80762L171.606 23.4307C172.485 23.2988 173.284 23.0132 174.001 22.5737C174.719 22.1196 175.334 21.5703 175.847 20.9258C176.375 20.2666 176.777 19.5415 177.056 18.7505C177.349 17.9448 177.51 17.1172 177.539 16.2676V15.96ZM210.388 20.3105C210.388 22.3174 210.037 24.0752 209.333 25.584C208.645 27.0781 207.693 28.3232 206.477 29.3193C205.276 30.3154 203.862 31.0625 202.236 31.5605C200.625 32.0586 198.889 32.3076 197.029 32.3076C196.311 32.3076 195.52 32.2124 194.656 32.022C193.806 31.8315 192.942 31.5972 192.063 31.3188C191.184 31.0259 190.334 30.7183 189.514 30.396C188.708 30.0591 187.991 29.7441 187.361 29.4512L188.328 20.3984C189.573 21.1455 190.95 21.7168 192.458 22.1123C193.982 22.4932 195.476 22.6836 196.941 22.6836C197.219 22.6836 197.556 22.6763 197.952 22.6616C198.347 22.6323 198.721 22.5664 199.072 22.4639C199.438 22.3467 199.746 22.1782 199.995 21.9585C200.244 21.7388 200.369 21.4238 200.369 21.0137C200.369 20.7354 200.281 20.501 200.105 20.3105C199.929 20.1055 199.702 19.9443 199.424 19.8271C199.146 19.6953 198.831 19.6001 198.479 19.5415C198.127 19.4683 197.783 19.417 197.446 19.3877C197.109 19.3584 196.794 19.3438 196.501 19.3438C196.208 19.3438 195.974 19.3438 195.798 19.3438C194.539 19.3438 193.389 19.124 192.349 18.6846C191.323 18.2451 190.437 17.6372 189.69 16.8608C188.958 16.0698 188.386 15.1396 187.976 14.0703C187.566 12.9863 187.361 11.8145 187.361 10.5547C187.361 8.82617 187.705 7.28076 188.394 5.91846C189.097 4.5415 190.027 3.37695 191.184 2.4248C192.356 1.45801 193.696 0.718262 195.205 0.205566C196.714 -0.307129 198.274 -0.563477 199.885 -0.563477C200.603 -0.563477 201.343 -0.53418 202.104 -0.475586C202.866 -0.431641 203.621 -0.34375 204.368 -0.211914C205.129 -0.0800781 205.869 0.0883789 206.587 0.293457C207.305 0.498535 207.986 0.754883 208.63 1.0625L207.795 9.9834C206.799 9.64648 205.752 9.36816 204.653 9.14844C203.569 8.91406 202.507 8.79688 201.467 8.79688C201.277 8.79688 201.028 8.8042 200.72 8.81885C200.427 8.81885 200.112 8.84082 199.775 8.88477C199.453 8.91406 199.124 8.96533 198.787 9.03857C198.45 9.11182 198.149 9.21436 197.886 9.34619C197.622 9.46338 197.41 9.62451 197.249 9.82959C197.087 10.0347 197.014 10.2764 197.029 10.5547C197.043 10.877 197.161 11.1406 197.38 11.3457C197.615 11.5361 197.908 11.6899 198.259 11.8071C198.625 11.9097 199.021 11.9829 199.446 12.0269C199.885 12.0708 200.317 12.1001 200.742 12.1147C201.167 12.1147 201.562 12.1147 201.929 12.1147C202.295 12.1001 202.595 12.1074 202.83 12.1367C204.001 12.21 205.056 12.459 205.994 12.8838C206.931 13.3086 207.722 13.8726 208.367 14.5757C209.026 15.2788 209.524 16.1211 209.861 17.1025C210.212 18.0693 210.388 19.1387 210.388 20.3105Z" fill="url(#paint0_linear_146_30)"/>
<defs>
<linearGradient id="paint0_linear_146_30" x1="105.5" y1="0" x2="288.5" y2="0" gradientUnits="userSpaceOnUse">
<stop stop-color="#9500FF"/>
<stop offset="0.554678" stop-color="#CC00FF"/>
</linearGradient>
</defs>
</svg>
