<?xml version="1.0" encoding="utf-8"?>
<!-- Generator: Adobe Illustrator 22.0.0, SVG Export Plug-In . SVG Version: 6.00 Build 0)  -->
<svg version="1.1" id="Слой_1" xmlns="http://www.w3.org/2000/svg" xmlns:xlink="http://www.w3.org/1999/xlink" x="0px" y="0px"
	 viewBox="0 0 1000 270" style="enable-background:new 0 0 1000 270;" xml:space="preserve">
<style type="text/css">
	.st0{fill:#1A1A18;}
	.st1{fill:#FFEC00;}
	.st2{fill:#8CC798;}
	.st3{fill:#4FA26C;}
	.st4{fill:#009DE2;}
	.st5{fill:#A0D8F7;}
	.st6{fill:#FFCB00;}
	.st7{fill:#EE7C00;}
	.st8{fill:#006126;}
</style>
<g>
	<g>
		<g>
			<polygon class="st0" points="423.9,125.4 393.1,125.4 393.1,110.3 421.8,110.3 421.8,98.7 393.1,98.7 393.1,85.5 423.2,85.5 
				423.2,74.1 377.4,74.1 377.4,137 423.9,137 			"/>
			<path class="st0" d="M523.1,74.1V137h15.6v-25.3h12.5c14.6,0,20.8-10.2,20.8-19c0-8.6-6.5-18.7-20.9-18.7L523.1,74.1L523.1,74.1z
				 M538.8,85.5h5.6c8.4,0,11.5,2,11.5,7.3c0,4.7-2.5,7.3-9.7,7.3h-7.3L538.8,85.5L538.8,85.5z"/>
			<path class="st0" d="M586.2,74.1V137h15.6v-25.6h4.5c8.4,0,10.9,12,17.7,25.6h17.4c-8.9-18.5-10.8-26.3-17.3-29.4
				c7.2-3.3,10.8-8.4,10.8-15.4c0-9.4-7.7-18.1-20.6-18.1L586.2,74.1L586.2,74.1z M601.9,85.5h7.9c5.9,0,9,2.4,9,7.1
				c0,5.4-4.3,7.2-8.6,7.2h-8.3L601.9,85.5L601.9,85.5z"/>
			<polygon class="st0" points="707.5,125.4 676.8,125.4 676.8,110.3 705.5,110.3 705.5,98.7 676.8,98.7 676.8,85.5 707,85.5 
				707,74.1 661.1,74.1 661.1,137 707.5,137 			"/>
			<path class="st0" d="M773,78c-7.9-3.4-14.3-4.8-21.3-4.8c-14.6,0-24,7.2-24,18.1c0,22.7,32.1,18.8,32.1,29.1
				c0,3.7-3.3,5.8-9.2,5.8c-6.9,0-12.5-2.2-21.6-8.1v13.6c6.2,3.3,11.7,6.1,22.7,6.1c14,0,24.2-7,24.2-19c0-22-32.1-19.3-32.1-28.8
				c0-3.2,3.6-5.1,9.2-5.1c5.4,0,10.8,1.6,19.9,5.6L773,78L773,78z"/>
			<path class="st0" d="M839.5,78c-7.9-3.4-14.3-4.8-21.3-4.8c-14.6,0-24,7.2-24,18.1c0,22.7,32.1,18.8,32.1,29.1
				c0,3.7-3.3,5.8-9.2,5.8c-6.9,0-12.5-2.2-21.6-8.1v13.6c6.2,3.3,11.7,6.1,22.7,6.1c14,0,24.2-7,24.2-19c0-22-32.1-19.3-32.1-28.8
				c0-3.2,3.6-5.1,9.2-5.1c5.4,0,10.8,1.6,19.9,5.6V78H839.5z"/>
			<path class="st0" d="M930.8,124.1h-20.4c11.3-14.3,17.1-25.2,17.1-33c0-11.2-7.6-17.9-19.9-17.9c-6,0-10.8,1.6-17.6,6v13.1
				c5-4.9,10.7-7.9,15.1-7.9c4.7,0,8.4,4.2,8.4,9c0,4.9-1.6,9.5-6.8,17.4c-4.5,6.9-10.9,16.2-17.5,24.3v1.8h41.6V124.1L930.8,124.1z
				"/>
			<path class="st0" d="M986.1,73.2h-8.9l-29.7,38.2v10.1h24.5v15.4H986v-15.4h4.3v-10.1H986V73.2H986.1z M972,94.2h0.2v17.2h-13.5
				L972,94.2z"/>
			<polygon class="st0" points="474,93.5 461.5,74.1 443.7,74.1 463.8,104.4 443,137 460.4,137 474,115.1 487.6,137 505.1,137 
				484.2,104.4 504.4,74.1 486.6,74.1 			"/>
		</g>
		<path class="st0" d="M405.4,174.2c-4.4-1.9-7.8-2.6-11.2-2.6c-10.3,0-17.7,7.2-17.7,17.1c0,6.8,5.4,16.2,17.5,16.2
			c5,0,8.5-1.2,11.8-2.8v-5c-3.6,2.4-7.7,3.6-11.3,3.6c-7.8,0-13.1-5-13.1-12.4c0-7.1,5.6-12.5,12.9-12.5c3.7,0,7.2,1.1,11.2,3.4v-5
			h-0.1V174.2z M431,171.8h-3.3l-14,32.6h4.7l10.8-26.4l11.5,26.4h4.7L431,171.8L431,171.8z M455.9,172h-4.7l14.2,32.5
			c-0.2,2.2-2.5,3.6-3.7,3.6c-1.9,0-3.3-0.4-4.3-1.5v4.2c1.1,0.7,2.5,1.2,4,1.2c3.7,0,6.1-2.2,8.1-7.4l12.1-32.5h-4.6l-9.5,27.1
			L455.9,172L455.9,172z M510.4,185.1c-3.4,0-5.7-0.9-7.6-5.7c-2.3-5.7-4.7-7.4-9.3-7.4h-0.8v4.2c4.2,0,5,1.5,6.3,5.4
			c0.9,2.4,3,4.8,4.9,5.7c-2.6,1.2-4.3,2.4-6.3,5.4l-7.8,11.8h5.4l6.3-9.8c1.8-2.7,5-5.6,8.8-5.6v15.4h4.7V189c3.6,0,7,2.8,8.8,5.6
			l6.3,9.8h5.4l-7.8-11.8c-2-3-3.6-4.2-6.3-5.4c2-0.9,4-3.4,4.9-5.7c1.3-3.8,2.2-5.4,6.3-5.4V172H532c-4.6,0-7.1,1.6-9.3,7.4
			c-1.9,4.8-4.2,5.7-7.6,5.7v-13.2h-4.7L510.4,185.1L510.4,185.1z M546.9,204.4H558c6.9,0,11.7-3.6,11.7-9.7c0-6.1-4.8-9.8-11.7-9.8
			h-6.6v-8.8h16v-4.2h-20.7v32.5H546.9z M551.6,189.2h6.2c4.8,0,7.2,2,7.2,5.6c0,3-2.4,5.6-6.3,5.6h-7.1V189.2L551.6,189.2z
			 M594.4,171.8h-3.3l-14,32.6h4.7l4-9.5h13.8l4.3,9.5h4.7L594.4,171.8L594.4,171.8z M592.7,178.9l5.3,11.8h-10.2L592.7,178.9
			L592.7,178.9z M663.1,200.2h-4.7l-11.2-28.5h-3.3l-10.7,28.5h-4.7v10.2h4.7v-6h25.3v6h4.7v-10.2H663.1z M645.5,178.6l8.2,21.7
			h-15.9L645.5,178.6L645.5,178.6z M671.6,188.2c0,8.8,6.7,16.7,17.4,16.7c10.9,0,17.6-7.9,17.6-16.7c0-9.1-6.7-16.7-17.4-16.7
			C678.5,171.6,671.6,179.2,671.6,188.2L671.6,188.2z M676.4,188.2c0-7.1,5.4-12.4,12.6-12.4c7.3,0,12.7,5.3,12.7,12.4
			s-5.4,12.4-12.7,12.4C681.8,200.6,676.4,195.3,676.4,188.2L676.4,188.2z M745.8,174.2c-4.4-1.9-7.8-2.6-11.2-2.6
			c-10.3,0-17.7,7.2-17.7,17.1c0,6.8,5.4,16.2,17.5,16.2c5,0,8.5-1.2,11.8-2.8v-5c-3.6,2.4-7.7,3.6-11.4,3.6
			c-7.8,0-13.1-5-13.1-12.4c0-7.1,5.6-12.5,12.9-12.5c3.7,0,7.2,1.1,11.2,3.4L745.8,174.2L745.8,174.2z M782,172h-27.1v4.2h11.2
			v28.2h4.7v-28.3h11.2L782,172L782,172z M805.9,171.8h-3.3l-14,32.6h4.7l4-9.5h13.8l4.3,9.5h4.7L805.9,171.8L805.9,171.8z
			 M804.3,178.9l5.3,11.8h-10.2L804.3,178.9L804.3,178.9z M830,204.4H841c8.1,0,11.2-4.7,11.2-8.6c0-4.4-3-7.6-7.8-8.4v-0.1
			c3.4-1.4,5-3.6,5-7c0-4-3-8.3-10-8.3H830V204.4L830,204.4z M834.6,176.2h4.3c4.3,0,5.7,2.1,5.7,4.5c0,3.5-2.2,5.1-6.9,5.1h-3.1
			L834.6,176.2L834.6,176.2z M834.6,190.1h5.7c4.9,0,7.2,2.1,7.2,5c0,2.4-1.5,5.1-7,5.1h-5.9L834.6,190.1L834.6,190.1z M862.6,172
			v32.4h4.7V189h1.3c3.1,0,6.3,2,9.1,6.7l5,8.8h5.4l-5.7-9.8c-2.3-4-4.8-6.3-7.1-7.4c1.8-0.9,3.6-3.3,4.5-5.7
			c1.3-3.8,2.2-5.4,6.3-5.4v-4.2h-0.8c-4.6,0-7.1,1.6-9.3,7.4c-1.9,4.8-4.2,5.7-7.6,5.7h-1.2v-13.2L862.6,172L862.6,172z M927.6,172
			h-2.3l-20.6,24.7V172H900v32.9h2.2l20.6-24.3v23.7h4.7L927.6,172L927.6,172z"/>
	</g>
	<g>
		<path class="st1" d="M178.5,21.8c64.3,0,116.5,52.2,116.5,116.5s-52.2,116.5-116.5,116.5S62,202.6,62,138.3
			C62.1,73.9,114.2,21.8,178.5,21.8z"/>
		<path class="st2" d="M178.5,205.4c-93.8,0-169.7-28.9-169.7-46c0-17.2,39.8-28,97.2-39c-0.1,3.2-0.1,6.3-0.1,9.5
			c2.4,12.6,33.8,19.3,72.7,19.3s70.3-7.1,72.7-19.3c0-3.2,0-6.3-0.1-9.5c57.3,10.9,97.2,21.9,97.2,39
			C348.3,176.5,272.3,205.4,178.5,205.4z"/>
		<path class="st2" d="M244.5,200.6c-15.1,13.9-39,22.9-66,22.9c-26.9,0-50.9-9-65.9-22.9c20.2,3,42.6,4.8,65.9,4.8
			C201.9,205.4,224.3,203.6,244.5,200.6z"/>
		<path class="st3" d="M177,223.5c-26.3-0.3-49.6-9.2-64.3-22.9c10.6,1.5,21.8,2.7,33.4,3.6C148.2,207.2,156.6,217.3,177,223.5z"/>
		<path class="st4" d="M178.6,53c-37.9,0-69.9,29.5-72.6,67.4L106,124c2.1,10.7,33.8,19.3,72.7,19.3s70.6-8.4,72.7-19.3l-0.1-3.5
			C248.5,82.6,216.5,53,178.6,53z"/>
		<path class="st5" d="M229.1,137.6l0.7-0.1c6.1-1.6,20.1-6.1,21.6-13.4l-0.1-3.5c-1.8-24.8-16.4-47.3-38.8-59.1
			c-1.1-0.5-1.8-1-3.3-1.6c1.1,0.9,20,16.3,20,53V137.6L229.1,137.6z"/>
		<path class="st1" d="M106,124.1L106,124.1v5.9c2.4,12.6,33.8,19.3,72.7,19.3s70.3-7.1,72.7-19.3v-5.9
			c-2.1,10.7-33.8,19.3-72.7,19.3S108,134.8,106,124.1z"/>
		<g>
			<path class="st1" d="M178.6,165.4L178.6,165.4c6.5,0,11.7,5.3,11.7,11.7v0.1c-3.3,1.6-7.3,2.5-11.7,2.5c-4.4,0-8.4-0.9-11.7-2.5
				v-0.1C166.9,170.7,172.2,165.4,178.6,165.4z"/>
			<path class="st6" d="M166.9,177.3L166.9,177.3L166.9,177.3v-0.3l0,0c0.1-5.1,3.6-9.4,8.2-10.9l0.3-0.1l0,0l0,0l0.3-0.1l0.2-0.1
				h0.1l0.2-0.1h0.1h0.1l0.3-0.1l0.2-0.1h0.1h0.2h0.1h0.2h0.1h0.2l0,0h0.2l0,0c-0.1,0.1-5.1,3-6,8.4c-0.3,1.8-0.3,3.5-0.3,5
				C169.9,178.5,168.2,177.9,166.9,177.3z"/>
			<path class="st7" d="M190.3,177.3v3.4c-3.3,1.6-7.3,2.5-11.7,2.5c-4.4,0-8.4-0.9-11.7-2.5v-3.4c3.3,1.6,7.3,2.5,11.7,2.5
				C182.9,179.8,187.1,178.8,190.3,177.3z"/>
		</g>
		<g>
			<path class="st1" d="M112.5,159.4L112.5,159.4c6.5,0,11.7,5.3,11.7,11.7v0.1c-3.3,1.6-7.3,2.5-11.7,2.5s-8.4-0.9-11.7-2.5v-0.1
				C100.7,164.7,106.1,159.4,112.5,159.4z"/>
			<path class="st6" d="M100.7,171.2L100.7,171.2L100.7,171.2v-0.3l0,0c0.1-5.1,3.6-9.4,8.2-10.9l0.3-0.1l0,0l0,0l0.3-0.1l0.2-0.1
				h0.1l0.2-0.1h0.1h0.1l0.3-0.1h0.2h0.1h0.2h0.1h0.2h0.1h0.2l0,0h0.2l0,0c-0.1,0.1-5.1,3-6,8.4c-0.3,1.8-0.3,3.5-0.3,5
				C103.8,172.4,102.1,171.9,100.7,171.2z"/>
			<path class="st7" d="M124.2,171.2v3.4c-3.3,1.6-7.3,2.5-11.7,2.5s-8.4-0.9-11.7-2.5v-3.4c3.3,1.6,7.3,2.5,11.7,2.5
				C116.8,173.8,120.9,172.8,124.2,171.2z"/>
		</g>
		<g>
			<path class="st1" d="M241.3,159.4L241.3,159.4c6.5,0,11.7,5.3,11.7,11.7v0.1c-3.3,1.6-7.3,2.5-11.7,2.5c-4.4,0-8.4-0.9-11.7-2.5
				v-0.1C229.6,164.7,234.9,159.4,241.3,159.4z"/>
			<path class="st6" d="M229.6,171.2L229.6,171.2L229.6,171.2v-0.3l0,0c0.1-5.1,3.6-9.4,8.2-10.9l0.3-0.1l0,0l0,0l0.3-0.1l0.2-0.1
				h0.1l0.2-0.1h0.1h0.1l0.3-0.1h0.2h0.1h0.2h0.1h0.2h0.1h0.2l0,0h0.2l0,0c-0.1,0.1-5.1,3-6,8.4c-0.3,1.8-0.3,3.5-0.3,5
				C232.6,172.4,231.1,171.9,229.6,171.2z"/>
			<path class="st7" d="M253,171.2v3.4c-3.3,1.6-7.3,2.5-11.7,2.5c-4.4,0-8.4-0.9-11.7-2.5v-3.4c3.3,1.6,7.3,2.5,11.7,2.5
				C245.7,173.8,249.8,172.8,253,171.2z"/>
		</g>
		<g>
			<path class="st1" d="M286,140.9L286,140.9c6.5,0,11.7,5.3,11.7,11.7v0.1c-3.3,1.6-7.3,2.5-11.7,2.5c-4.4,0-8.4-0.9-11.7-2.5v-0.1
				C274.3,146.2,279.5,140.9,286,140.9z"/>
			<path class="st6" d="M274.3,152.7L274.3,152.7L274.3,152.7v-0.3l0,0c0.1-5.1,3.6-9.4,8.2-10.9l0.3-0.1l0,0l0,0l0.3-0.1l0.2-0.1
				h0.1l0.2-0.1h0.1l0,0l0.3-0.1l0.2-0.1h0.1h0.2h0.1h0.2h0.1h0.2l0,0h0.2l0,0c-0.1,0.1-5.1,3-6,8.4c-0.3,1.8-0.3,3.5-0.3,5
				C277.2,153.9,275.7,153.4,274.3,152.7z"/>
			<path class="st7" d="M297.7,152.7v3.4c-3.3,1.6-7.3,2.5-11.7,2.5c-4.4,0-8.4-0.9-11.7-2.5v-3.4c3.3,1.6,7.3,2.5,11.7,2.5
				C290.4,155.3,294.4,154.3,297.7,152.7z"/>
		</g>
		<path class="st3" d="M21.7,143.9c13.9-7.8,38.3-14.2,69.1-20.5c5.1-1,10.3-2.1,15.3-3v0.3c-0.1,3.1-0.1,6.2-0.1,9.3
			c2.1,10.9,26.3,17.4,58.1,18.8c3.5,0.2,7.1,0.3,10.7,0.4l0,0c-41.5,0.2-72.7,1.4-141.8,21.7C17.9,162.8,12.1,153.5,21.7,143.9z"/>
		<path class="st8" d="M178.5,205.4c-86.2,0-157.5-24.4-168.3-41.6c-0.9-1.4-1.2-2.7-1.4-3.7c0-0.2-0.1-0.4-0.1-0.5
			c0-5.8,4.6-10.9,12.8-15.4c-28,28,74.5,53,156.9,53s184.8-25.2,156.9-53c8.2,4.6,12.8,9.7,12.8,15.4c0,0.2,0,0.4-0.1,0.5
			c-0.1,1.1-0.5,2.3-1.4,3.7C336,181,264.8,205.4,178.5,205.4z"/>
		<g>
			<path class="st1" d="M69.1,140.9L69.1,140.9c6.5,0,11.7,5.3,11.7,11.7v0.1c-3.3,1.6-7.3,2.5-11.7,2.5s-8.4-0.9-11.7-2.5v-0.1
				C57.4,146.2,62.6,140.9,69.1,140.9z"/>
			<path class="st6" d="M57.4,152.7L57.4,152.7L57.4,152.7v-0.3l0,0c0.1-5.1,3.6-9.4,8.2-10.9l0.3-0.1l0,0l0,0l0.3-0.1l0.2-0.1h0.1
				l0.2-0.1h0.1H67l0.3-0.1l0.2-0.1h0.1h0.2H68h0.2h0.1h0.2l0,0h0.2l0,0c-0.1,0.1-5.1,3-6,8.4c-0.3,1.8-0.3,3.5-0.3,5
				C60.3,153.9,58.8,153.4,57.4,152.7z"/>
			<path class="st7" d="M80.8,152.7v3.4c-3.3,1.6-7.3,2.5-11.7,2.5s-8.4-0.9-11.7-2.5v-3.4c3.3,1.6,7.3,2.5,11.7,2.5
				C73.5,155.3,77.5,154.3,80.8,152.7z"/>
		</g>
	</g>
</g>
</svg>
