<svg width="131" height="32" viewBox="0 0 131 32" fill="none" xmlns="http://www.w3.org/2000/svg">
<path d="M8.476 23.315C6.334 23.315 4.717 22.755 3.625 21.635C2.533 20.501 1.987 18.982 1.987 17.078V8.321H5.179V17.12C5.179 18.184 5.473 18.996 6.061 19.556C6.649 20.116 7.454 20.396 8.476 20.396C9.484 20.396 10.275 20.116 10.849 19.556C11.437 18.996 11.731 18.184 11.731 17.12V8.321H14.923V17.078C14.923 18.982 14.384 20.501 13.306 21.635C12.228 22.755 10.618 23.315 8.476 23.315ZM17.0217 8.321H20.2137V14.705L25.7577 8.321H29.5587L23.3427 15.482L29.9787 23H26.1777L20.2137 16.259V23H17.0217V8.321ZM32.5233 23C32.1873 23 31.9003 22.888 31.6623 22.664C31.4383 22.44 31.3263 22.16 31.3263 21.824C31.3263 21.488 31.4453 21.201 31.6833 20.963C31.9213 20.725 32.2013 20.606 32.5233 20.606C32.8593 20.606 33.1463 20.725 33.3843 20.963C33.6223 21.201 33.7413 21.488 33.7413 21.824C33.7413 22.16 33.6223 22.44 33.3843 22.664C33.1463 22.888 32.8593 23 32.5233 23ZM42.841 8.321H53.026V11.009H46.033V14.432H51.178V16.889H46.033V23H42.841V8.321ZM57.6116 8.321H60.7406L66.5996 23H63.3446L62.0846 19.808H56.2676L55.0076 23H51.7316L57.6116 8.321ZM61.2446 17.267L59.1656 11.681L57.0866 17.267H61.2446ZM71.8399 23.315C70.9439 23.315 70.0549 23.231 69.1729 23.063C68.2909 22.895 67.5699 22.671 67.0099 22.391V19.577C67.7519 19.941 68.5219 20.214 69.3199 20.396C70.1179 20.578 70.8809 20.669 71.6089 20.669C72.4209 20.669 73.0369 20.529 73.4569 20.249C73.8769 19.969 74.0869 19.577 74.0869 19.073C74.0869 18.709 73.9819 18.401 73.7719 18.149C73.5619 17.897 73.2539 17.673 72.8479 17.477C72.4559 17.267 71.8469 16.994 71.0209 16.658C69.6489 16.098 68.6549 15.475 68.0389 14.789C67.4229 14.089 67.1149 13.228 67.1149 12.206C67.1149 11.38 67.3389 10.652 67.7869 10.022C68.2349 9.378 68.8649 8.881 69.6769 8.531C70.4889 8.181 71.4269 8.006 72.4909 8.006C73.3589 8.006 74.1289 8.076 74.8009 8.216C75.4729 8.356 76.1309 8.573 76.7749 8.867V11.597C75.5429 10.981 74.3109 10.673 73.0789 10.673C72.2949 10.673 71.6789 10.813 71.2309 11.093C70.7829 11.359 70.5589 11.744 70.5589 12.248C70.5589 12.612 70.6639 12.913 70.8739 13.151C71.0839 13.389 71.3779 13.599 71.7559 13.781C72.1339 13.963 72.7499 14.229 73.6039 14.579C74.5979 14.999 75.3749 15.405 75.9349 15.797C76.4949 16.175 76.9079 16.63 77.1739 17.162C77.4399 17.68 77.5729 18.324 77.5729 19.094C77.5729 20.424 77.0899 21.46 76.1239 22.202C75.1719 22.944 73.7439 23.315 71.8399 23.315ZM79.3654 8.321H82.5574V14.201H88.9624V8.321H92.1544V23H88.9624V16.847H82.5574V23H79.3654V8.321ZM94.3361 8.321H97.5281V23H94.3361V8.321ZM107.164 23.315C105.694 23.315 104.357 22.993 103.153 22.349C101.963 21.705 101.025 20.809 100.339 19.661C99.6527 18.499 99.3097 17.169 99.3097 15.671C99.3097 14.173 99.6527 12.843 100.339 11.681C101.025 10.519 101.963 9.616 103.153 8.972C104.357 8.328 105.694 8.006 107.164 8.006C108.634 8.006 109.957 8.328 111.133 8.972C112.323 9.616 113.261 10.519 113.947 11.681C114.633 12.843 114.976 14.173 114.976 15.671C114.976 17.169 114.633 18.499 113.947 19.661C113.261 20.809 112.323 21.705 111.133 22.349C109.957 22.993 108.634 23.315 107.164 23.315ZM107.164 20.375C108.004 20.375 108.767 20.186 109.453 19.808C110.153 19.416 110.706 18.87 111.112 18.17C111.518 17.456 111.721 16.623 111.721 15.671C111.721 14.733 111.518 13.914 111.112 13.214C110.72 12.5 110.174 11.954 109.474 11.576C108.788 11.184 108.018 10.988 107.164 10.988C106.296 10.988 105.512 11.184 104.812 11.576C104.126 11.954 103.58 12.5 103.174 13.214C102.768 13.914 102.565 14.733 102.565 15.671C102.565 16.623 102.768 17.456 103.174 18.17C103.58 18.87 104.133 19.416 104.833 19.808C105.533 20.186 106.31 20.375 107.164 20.375ZM116.731 8.321H119.839L125.971 17.813V8.321H129.163V23H126.076L119.923 13.508V23H116.731V8.321Z" fill="white"/>
<line x1="1" y1="31" x2="35" y2="31" stroke="white" stroke-width="2" stroke-linecap="round"/>
<line x1="42" y1="31" x2="60" y2="31" stroke="white" stroke-width="2" stroke-linecap="round"/>
</svg>
