<svg width="10" height="9" viewBox="0 0 10 9" fill="none" xmlns="http://www.w3.org/2000/svg">
<path d="M10 0.98654C9.62814 1.15385 9.23189 1.26475 8.81876 1.31859C9.24376 1.05833 9.56814 0.64936 9.72064 0.15641C9.32439 0.398718 8.88689 0.569873 8.42064 0.665386C8.04438 0.254488 7.50813 0 6.92313 0C5.78813 0 4.87438 0.944873 4.87438 2.10321C4.87438 2.26987 4.88813 2.43013 4.92188 2.5827C3.2175 2.49744 1.70938 1.65962 0.696251 0.383334C0.519376 0.698078 0.415626 1.05833 0.415626 1.44616C0.415626 2.17436 0.781251 2.81988 1.32625 3.19359C0.996876 3.18718 0.673751 3.08911 0.4 2.93462V2.9577C0.4 3.97949 1.11063 4.82821 2.0425 5.02372C1.87563 5.07052 1.69375 5.09295 1.505 5.09295C1.37375 5.09295 1.24125 5.08526 1.11688 5.05706C1.3825 5.88975 2.13625 6.50193 3.0325 6.5218C2.335 7.08142 1.44938 7.4186 0.490626 7.4186C0.3225 7.4186 0.16125 7.41091 0 7.38975C0.908126 7.99039 1.98438 8.33334 3.145 8.33334C6.91751 8.33334 8.98001 5.12821 8.98001 2.35C8.98001 2.25705 8.97689 2.16731 8.97251 2.07821C9.37939 1.78205 9.72126 1.41218 10 0.98654V0.98654Z" fill="white"/>
</svg>
