<svg width="242" height="288" viewBox="0 0 242 288" fill="none" xmlns="http://www.w3.org/2000/svg">
<path fill-rule="evenodd" clip-rule="evenodd" d="M98 288C177.529 288 242 223.529 242 144C242 64.471 177.529 0 98 0C18.471 0 -46 64.471 -46 144C-46 223.529 18.471 288 98 288Z" fill="url(#paint0_linear_3500_147)"/>
<path fill-rule="evenodd" clip-rule="evenodd" d="M199 288C222.748 288 242 268.748 242 245C242 221.252 222.748 202 199 202C175.252 202 156 221.252 156 245C156 268.748 175.252 288 199 288Z" fill="url(#paint1_linear_3500_147)"/>
<defs>
<linearGradient id="paint0_linear_3500_147" x1="116.393" y1="356.083" x2="311.624" y2="154.674" gradientUnits="userSpaceOnUse">
<stop stop-color="#CD10FF"/>
<stop offset="1" stop-color="#9F06FF"/>
</linearGradient>
<linearGradient id="paint1_linear_3500_147" x1="200.509" y1="306.528" x2="244.318" y2="245.588" gradientUnits="userSpaceOnUse">
<stop stop-color="#FFD7A9"/>
<stop offset="1" stop-color="#FFAE70"/>
</linearGradient>
</defs>
</svg>
