<svg width="45" height="45" viewBox="0 0 45 45" fill="none" xmlns="http://www.w3.org/2000/svg">
<path d="M22.5 0.9375C10.0687 0.9375 0 10.8375 0 23.0475C0 32.8181 6.44625 41.1038 15.3844 44.025C16.5094 44.2331 16.9219 43.5488 16.9219 42.9619C16.9219 42.4369 16.9031 41.0456 16.8938 39.2025C10.635 40.5356 9.315 36.2363 9.315 36.2363C8.29125 33.6844 6.81187 33.0019 6.81187 33.0019C4.77375 31.6313 6.96938 31.6594 6.96938 31.6594C9.22875 31.8131 10.4156 33.9375 10.4156 33.9375C12.4219 37.3181 15.6825 36.3413 16.9688 35.7769C17.1713 34.3463 17.7506 33.3731 18.3938 32.82C13.3969 32.2669 8.145 30.3656 8.145 21.8944C8.145 19.4813 9.01688 17.5088 10.4606 15.9619C10.2075 15.4031 9.44812 13.155 10.6575 10.11C10.6575 10.11 12.5419 9.5175 16.845 12.3769C18.645 11.8856 20.5575 11.6419 22.47 11.6306C24.3825 11.6419 26.295 11.8856 28.095 12.3769C32.37 9.5175 34.2544 10.11 34.2544 10.11C35.4637 13.155 34.7044 15.4031 34.4794 15.9619C35.9137 17.5088 36.7856 19.4813 36.7856 21.8944C36.7856 30.3881 31.5263 32.2575 26.52 32.8013C27.3075 33.465 28.0388 34.8206 28.0388 36.8925C28.0388 39.8513 28.0106 42.2288 28.0106 42.9469C28.0106 43.5263 28.4044 44.2181 29.5575 43.9969C38.5594 41.0944 45 32.8031 45 23.0475C45 10.8375 34.9256 0.9375 22.5 0.9375Z" fill="black"/>
</svg>
