<svg width="45" height="45" viewBox="0 0 45 45" fill="none" xmlns="http://www.w3.org/2000/svg">
<path d="M40.9294 0H4.07062C1.8225 0 0 1.8225 0 4.07062V40.9293C0 43.1775 1.8225 45 4.07062 45H40.9293C43.1775 45 45 43.1775 45 40.9293V4.07062C45 1.8225 43.1775 0 40.9294 0ZM13.9249 38.856C13.9249 39.5102 13.3946 40.0406 12.7403 40.0406H7.69771C7.04344 40.0406 6.5131 39.5102 6.5131 38.856V17.7176C6.5131 17.0634 7.04344 16.533 7.69771 16.533H12.7403C13.3946 16.533 13.9249 17.0634 13.9249 17.7176V38.856ZM10.219 14.5404C7.57331 14.5404 5.42851 12.3956 5.42851 9.74992C5.42851 7.10423 7.57331 4.95942 10.219 4.95942C12.8647 4.95942 15.0095 7.10423 15.0095 9.74992C15.0095 12.3956 12.8648 14.5404 10.219 14.5404ZM40.2774 38.9514C40.2774 39.5529 39.7897 40.0406 39.1882 40.0406H33.7771C33.1756 40.0406 32.6879 39.5529 32.6879 38.9514V29.0363C32.6879 27.5572 33.1218 22.5548 28.8225 22.5548C25.4877 22.5548 24.8113 25.9788 24.6754 27.5154V38.9514C24.6754 39.5529 24.1879 40.0406 23.5862 40.0406H18.3528C17.7513 40.0406 17.2636 39.5529 17.2636 38.9514V17.6222C17.2636 17.0207 17.7513 16.533 18.3528 16.533H23.5862C24.1877 16.533 24.6754 17.0207 24.6754 17.6222V19.4664C25.912 17.6107 27.7497 16.1783 31.6624 16.1783C40.327 16.1783 40.2774 24.2731 40.2774 28.7208V38.9514Z" fill="#0077B7"/>
</svg>
