<svg width="46" height="47" viewBox="0 0 46 47" fill="none" xmlns="http://www.w3.org/2000/svg">
<path d="M3.81257 4.06181C0.276318 7.73494 1.00007 11.6368 1.00007 23.4906C1.00007 33.3343 -0.717432 43.2024 8.27132 45.5256C11.0782 46.2475 35.9482 46.2475 38.7513 45.5218C42.4938 44.5562 45.5388 41.5206 45.9551 36.2274C46.0132 35.4887 46.0132 11.5056 45.9532 10.7518C45.5107 5.11369 42.0401 1.86431 37.4669 1.20618C36.4188 1.05431 36.2088 1.00931 30.8313 0.999934C11.7569 1.00931 7.57569 0.159934 3.81257 4.06181Z" fill="url(#paint0_linear_2401_156)"/>
<path d="M23.4963 6.88566C16.6881 6.88566 10.2231 6.28004 7.75377 12.6175C6.73377 15.235 6.88189 18.6344 6.88189 23.5019C6.88189 27.7732 6.74502 31.7875 7.75377 34.3844C10.2175 40.7257 16.735 40.1182 23.4925 40.1182C30.0119 40.1182 36.7338 40.7969 39.2332 34.3844C40.255 31.7407 40.105 28.3919 40.105 23.5019C40.105 17.0107 40.4632 12.82 37.315 9.67379C34.1275 6.48629 29.8169 6.88566 23.4888 6.88566H23.4963ZM22.0075 9.88004C36.2088 9.85754 38.0163 8.27879 37.0188 30.2107C36.6644 37.9675 30.7581 37.1163 23.4981 37.1163C10.2606 37.1163 9.88002 36.7375 9.88002 23.4944C9.88002 10.0975 10.93 9.88754 22.0075 9.87629V9.88004ZM32.365 12.6382C31.2644 12.6382 30.3719 13.5307 30.3719 14.6313C30.3719 15.7319 31.2644 16.6244 32.365 16.6244C33.4656 16.6244 34.3581 15.7319 34.3581 14.6313C34.3581 13.5307 33.4656 12.6382 32.365 12.6382ZM23.4963 14.9688C18.7844 14.9688 14.965 18.79 14.965 23.5019C14.965 28.2138 18.7844 32.0332 23.4963 32.0332C28.2081 32.0332 32.0256 28.2138 32.0256 23.5019C32.0256 18.79 28.2081 14.9688 23.4963 14.9688ZM23.4963 17.9632C30.8181 17.9632 30.8275 29.0407 23.4963 29.0407C16.1763 29.0407 16.165 17.9632 23.4963 17.9632Z" fill="white"/>
<defs>
<linearGradient id="paint0_linear_2401_156" x1="3.89886" y1="43.1257" x2="45.7216" y2="6.92865" gradientUnits="userSpaceOnUse">
<stop stop-color="#FFDD55"/>
<stop offset="0.5" stop-color="#FF543E"/>
<stop offset="1" stop-color="#C837AB"/>
</linearGradient>
</defs>
</svg>
