<svg width="45" height="37" viewBox="0 0 45 37" fill="none" xmlns="http://www.w3.org/2000/svg">
<path d="M44.7416 4.52301C44.4424 4.19587 43.9607 4.11085 43.5676 4.31565C43.1636 4.49926 42.7455 4.6504 42.3174 4.76761C42.9851 3.91321 43.4892 2.94279 43.8044 1.90515C43.9431 1.38302 43.6323 0.847232 43.1102 0.70847C42.8314 0.634365 42.5341 0.6871 42.2979 0.852551C40.8104 1.65752 39.2293 2.27594 37.5904 2.6937C34.2165 -0.490774 29.0773 -0.88771 25.2543 1.74089C22.3095 3.73198 20.6883 7.17325 21.0282 10.7116C14.6446 10.1677 8.77139 7.00441 4.80442 1.97366C4.60063 1.72713 4.29229 1.59139 3.97286 1.60781C3.64893 1.62725 3.35581 1.8061 3.19027 2.08518C1.84391 4.28603 1.45386 6.94085 2.11025 9.43591C2.44684 10.7179 3.02381 11.9243 3.81052 12.991C3.45614 12.8175 3.12267 12.6042 2.81663 12.3552C2.39704 12.0148 1.781 12.079 1.44056 12.4986C1.29932 12.6728 1.2221 12.8901 1.22201 13.1144C1.28015 16.734 3.26776 20.0468 6.43426 21.8014C6.00706 21.749 5.58536 21.6586 5.17421 21.5314C4.65686 21.3758 4.11125 21.669 3.95561 22.1864C3.88775 22.4121 3.90361 22.6547 4.00028 22.8697C5.3746 25.9483 8.12215 28.1968 11.4117 28.935C8.27761 30.7032 4.66869 31.4462 1.09095 31.0598C0.62706 31.0006 0.18757 31.2826 0.0480735 31.729C-0.0957331 32.1718 0.0924628 32.6546 0.498111 32.8834C4.8788 35.4862 9.86223 36.9022 14.957 36.9921C19.8448 36.9742 24.6186 35.5143 28.6803 32.7953C36.4341 27.6496 41.2667 18.4107 40.5937 10.1443C42.2516 8.91709 43.6898 7.41813 44.8473 5.71079C45.0852 5.3366 45.0418 4.84924 44.7416 4.52301Z" fill="#03A9F4"/>
</svg>
