<svg width="98" height="19" viewBox="0 0 98 19" fill="none" xmlns="http://www.w3.org/2000/svg">
<path d="M15.248 0.912V18H12.944L3.728 6.024V18H0.848V0.912H3.152L12.344 12.864V0.912H15.248ZM33.2212 8.76V16.968C32.4372 17.352 31.4932 17.656 30.3892 17.88C29.2852 18.104 28.1572 18.216 27.0052 18.216C25.2452 18.216 23.7172 17.864 22.4212 17.16C21.1252 16.456 20.1332 15.448 19.4452 14.136C18.7572 12.824 18.4132 11.256 18.4132 9.432C18.4132 7.64 18.7572 6.088 19.4452 4.776C20.1332 3.464 21.1092 2.456 22.3732 1.752C23.6532 1.048 25.1492 0.696 26.8612 0.696C28.0612 0.696 29.1812 0.871999 30.2212 1.224C31.2772 1.576 32.1572 2.072 32.8612 2.712L31.8052 4.968C31.0052 4.344 30.2212 3.896 29.4532 3.624C28.6852 3.352 27.8452 3.216 26.9332 3.216C25.1732 3.216 23.8372 3.744 22.9252 4.8C22.0292 5.856 21.5812 7.4 21.5812 9.432C21.5812 11.528 22.0452 13.112 22.9732 14.184C23.9012 15.24 25.2852 15.768 27.1252 15.768C28.2452 15.768 29.3492 15.616 30.4372 15.312V10.992H26.7412V8.76H33.2212ZM36.7074 0.912H48.1314V3.36H39.7314V8.088H47.6274V10.536H39.7314V15.552H48.1314V18H36.7074V0.912ZM50.9808 0.912H58.3968C60.2368 0.912 61.6688 1.36 62.6928 2.256C63.7168 3.136 64.2288 4.344 64.2288 5.88C64.2288 7.416 63.7088 8.632 62.6688 9.528C61.6448 10.424 60.2208 10.872 58.3968 10.872H54.0768V18H50.9808V0.912ZM58.0368 8.472C59.1088 8.472 59.9168 8.256 60.4608 7.824C61.0208 7.376 61.3008 6.736 61.3008 5.904C61.3008 5.056 61.0288 4.416 60.4848 3.984C59.9408 3.536 59.1248 3.312 58.0368 3.312H54.0768V8.472H58.0368ZM66.9652 0.912H78.3892V3.36H69.9892V8.088H77.8852V10.536H69.9892V15.552H78.3892V18H66.9652V0.912ZM85.2701 3.456H79.7021V0.912H93.9821V3.456H88.3901V18H85.2701V3.456ZM97.3597 14.64V18H93.9997V14.64H97.3597Z" fill="#FEA05D"/>
</svg>
